<?xml version="1.0" encoding="UTF-8"?>
<svg width="128" height="128" viewBox="0 0 128 128" xmlns="http://www.w3.org/2000/svg">
  <!-- Background -->
  <rect width="128" height="128" rx="16" fill="#1e293b"/>
  
  <!-- SSH Terminal Icon -->
  <rect x="16" y="20" width="96" height="60" rx="4" fill="#0f172a" stroke="#334155" stroke-width="2"/>
  
  <!-- Terminal Header -->
  <rect x="16" y="20" width="96" height="12" rx="4" fill="#334155"/>
  <circle cx="24" cy="26" r="2" fill="#ef4444"/>
  <circle cx="32" cy="26" r="2" fill="#f59e0b"/>
  <circle cx="40" cy="26" r="2" fill="#10b981"/>
  
  <!-- Terminal Content -->
  <rect x="20" y="36" width="32" height="2" fill="#22d3ee"/>
  <rect x="20" y="42" width="24" height="2" fill="#a78bfa"/>
  <rect x="20" y="48" width="40" height="2" fill="#22d3ee"/>
  <rect x="20" y="54" width="16" height="2" fill="#a78bfa"/>
  <rect x="20" y="60" width="28" height="2" fill="#22d3ee"/>
  <rect x="20" y="66" width="8" height="2" fill="#10b981"/>
  
  <!-- WSL Penguin -->
  <g transform="translate(70, 40)">
    <!-- Penguin body -->
    <ellipse cx="12" cy="20" rx="8" ry="12" fill="#f8fafc"/>
    <ellipse cx="12" cy="18" rx="6" ry="10" fill="#0f172a"/>
    
    <!-- Penguin head -->
    <circle cx="12" cy="8" r="6" fill="#f8fafc"/>
    <circle cx="12" cy="8" r="4" fill="#0f172a"/>
    
    <!-- Eyes -->
    <circle cx="10" cy="6" r="1" fill="#f8fafc"/>
    <circle cx="14" cy="6" r="1" fill="#f8fafc"/>
    
    <!-- Beak -->
    <polygon points="12,8 10,10 14,10" fill="#f59e0b"/>
    
    <!-- Wings -->
    <ellipse cx="6" cy="16" rx="2" ry="6" fill="#0f172a"/>
    <ellipse cx="18" cy="16" rx="2" ry="6" fill="#0f172a"/>
  </g>
  
  <!-- Connection Lines -->
  <path d="M 32 88 Q 48 96 64 88 Q 80 96 96 88" stroke="#22d3ee" stroke-width="3" fill="none"/>
  
  <!-- SSH Key Icon -->
  <g transform="translate(20, 88)">
    <rect x="0" y="4" width="12" height="6" rx="2" fill="#fbbf24"/>
    <circle cx="6" cy="7" r="2" fill="#0f172a"/>
    <rect x="12" y="6" width="8" height="2" fill="#fbbf24"/>
    <rect x="18" y="4" width="2" height="2" fill="#fbbf24"/>
    <rect x="18" y="8" width="2" height="2" fill="#fbbf24"/>
  </g>
  
  <!-- Server Icon -->
  <g transform="translate(88, 88)">
    <rect x="0" y="0" width="16" height="12" rx="2" fill="#6366f1"/>
    <rect x="2" y="2" width="12" height="2" fill="#a5b4fc"/>
    <rect x="2" y="5" width="12" height="2" fill="#a5b4fc"/>
    <rect x="2" y="8" width="12" height="2" fill="#a5b4fc"/>
    <circle cx="13" cy="3" r="1" fill="#10b981"/>
    <circle cx="13" cy="6" r="1" fill="#f59e0b"/>
    <circle cx="13" cy="9" r="1" fill="#ef4444"/>
  </g>
  
  <!-- Brand Text -->
  <text x="64" y="118" text-anchor="middle" font-family="Arial, sans-serif" font-size="10" font-weight="bold" fill="#64748b">SSH & WSL</text>
</svg>